<?xml version="1.0" encoding="UTF-8" standalone="no"?>
<!DOCTYPE svg PUBLIC "-//W3C//DTD SVG 1.1//EN"
 "http://www.w3.org/Graphics/SVG/1.1/DTD/svg11.dtd">
<!-- Generated by graphviz version 2.43.0 (0)
 -->
<!-- Title: ExampleNormal Pages: 1 -->
<svg width="1142pt" height="699pt"
 viewBox="0.00 0.00 1142.00 699.00" xmlns="http://www.w3.org/2000/svg" xmlns:xlink="http://www.w3.org/1999/xlink">
<g id="graph0" class="graph" transform="scale(1 1) rotate(0) translate(36 663)">
<title>ExampleNormal</title>
<polygon fill="#fcfcfb" stroke="transparent" points="-36,36 -36,-663 1106,-663 1106,36 -36,36"/>
<text text-anchor="middle" x="535" y="-608.6" font-family="Helvetica,sans-Serif" font-size="18.00" fill="#1e293b">Example 1: &#160;Normal Case — MCP Tool Call (search academic papers)</text>
<g id="clust1" class="cluster">
<title>cluster_naive</title>
<path fill="#fffbeb" stroke="#fbbf24" d="M20,-179C20,-179 250,-179 250,-179 256,-179 262,-185 262,-191 262,-191 262,-541 262,-541 262,-547 256,-553 250,-553 250,-553 20,-553 20,-553 14,-553 8,-547 8,-541 8,-541 8,-191 8,-191 8,-185 14,-179 20,-179"/>
<text text-anchor="middle" x="85.5" y="-537.8" font-family="Helvetica,sans-Serif" font-weight="bold" font-size="14.00" fill="#92400e">Naive Agent Loop</text>
</g>
<g id="clust2" class="cluster">
<title>cluster_kernel</title>
<path fill="#f0fdf4" stroke="#22c55e" d="M282,-8C282,-8 854,-8 854,-8 860,-8 866,-14 866,-20 866,-20 866,-541 866,-541 866,-547 860,-553 854,-553 854,-553 282,-553 282,-553 276,-553 270,-547 270,-541 270,-541 270,-20 270,-20 270,-14 276,-8 282,-8"/>
<text text-anchor="middle" x="374.5" y="-537.8" font-family="Helvetica,sans-Serif" font-weight="bold" font-size="14.00" fill="#166534">With Agent OS Kernel v2</text>
</g>
<g id="clust3" class="cluster">
<title>cluster_gate1</title>
<path fill="#e2fee9" stroke="#86efac" d="M300,-98.5C300,-98.5 664,-98.5 664,-98.5 670,-98.5 676,-104.5 676,-110.5 676,-110.5 676,-333 676,-333 676,-339 670,-345 664,-345 664,-345 300,-345 300,-345 294,-345 288,-339 288,-333 288,-333 288,-110.5 288,-110.5 288,-104.5 294,-98.5 300,-98.5"/>
<text text-anchor="middle" x="311" y="-332.2" font-family="Helvetica,sans-Serif" font-weight="bold" font-size="11.00" fill="#166534">Gate</text>
</g>
<!-- n1 -->
<g id="node1" class="node">
<title>n1</title>
<polygon fill="#fef3c7" stroke="#334155" stroke-width="1.2" points="247.5,-599 84.5,-599 84.5,-561 253.5,-561 253.5,-593 247.5,-599"/>
<polyline fill="none" stroke="#334155" stroke-width="1.2" points="247.5,-599 247.5,-593 "/>
<polyline fill="none" stroke="#334155" stroke-width="1.2" points="253.5,-593 247.5,-593 "/>
<text text-anchor="middle" x="169" y="-583.2" font-family="Helvetica,sans-Serif" font-size="11.00">User: &quot;Find recent papers</text>
<text text-anchor="middle" x="169" y="-571.2" font-family="Helvetica,sans-Serif" font-size="11.00">on transformer efficiency&quot;</text>
</g>
<!-- n2 -->
<g id="node2" class="node">
<title>n2</title>
<path fill="#fffaf0" stroke="#334155" stroke-width="1.2" d="M231.5,-512C231.5,-512 38.5,-512 38.5,-512 32.5,-512 26.5,-506 26.5,-500 26.5,-500 26.5,-466 26.5,-466 26.5,-460 32.5,-454 38.5,-454 38.5,-454 231.5,-454 231.5,-454 237.5,-454 243.5,-460 243.5,-466 243.5,-466 243.5,-500 243.5,-500 243.5,-506 237.5,-512 231.5,-512"/>
<text text-anchor="middle" x="135" y="-497" font-family="Courier,monospace" font-size="10.00">LLM generates tool call:</text>
<text text-anchor="middle" x="135" y="-486" font-family="Courier,monospace" font-size="10.00">mcp.scholar.search(</text>
<text text-anchor="middle" x="135" y="-475" font-family="Courier,monospace" font-size="10.00"> &#160;query=&quot;transformer efficiency&quot;</text>
<text text-anchor="middle" x="135" y="-464" font-family="Courier,monospace" font-size="10.00">)</text>
</g>
<!-- n1&#45;&gt;n2 -->
<g id="edge1" class="edge">
<title>n1&#45;&gt;n2</title>
<path fill="none" stroke="#475569" stroke-width="1.2" d="M162.44,-560.68C158.19,-548.81 152.52,-532.96 147.44,-518.75"/>
<polygon fill="#475569" stroke="#475569" stroke-width="1.2" points="149.48,-517.71 145.15,-512.36 145.2,-519.24 149.48,-517.71"/>
</g>
<!-- k1 -->
<g id="node7" class="node">
<title>k1</title>
<polygon fill="#dcfce7" stroke="#334155" stroke-width="1.2" points="458.5,-599 295.5,-599 295.5,-561 464.5,-561 464.5,-593 458.5,-599"/>
<polyline fill="none" stroke="#334155" stroke-width="1.2" points="458.5,-599 458.5,-593 "/>
<polyline fill="none" stroke="#334155" stroke-width="1.2" points="464.5,-593 458.5,-593 "/>
<text text-anchor="middle" x="380" y="-583.2" font-family="Helvetica,sans-Serif" font-size="11.00">User: &quot;Find recent papers</text>
<text text-anchor="middle" x="380" y="-571.2" font-family="Helvetica,sans-Serif" font-size="11.00">on transformer efficiency&quot;</text>
</g>
<!-- n1&#45;&gt;k1 -->
<!-- n3 -->
<g id="node3" class="node">
<title>n3</title>
<path fill="#fef9c3" stroke="#334155" stroke-width="1.2" d="M203.5,-406.5C203.5,-406.5 66.5,-406.5 66.5,-406.5 60.5,-406.5 54.5,-400.5 54.5,-394.5 54.5,-394.5 54.5,-380.5 54.5,-380.5 54.5,-374.5 60.5,-368.5 66.5,-368.5 66.5,-368.5 203.5,-368.5 203.5,-368.5 209.5,-368.5 215.5,-374.5 215.5,-380.5 215.5,-380.5 215.5,-394.5 215.5,-394.5 215.5,-400.5 209.5,-406.5 203.5,-406.5"/>
<text text-anchor="middle" x="135" y="-390.7" font-family="Helvetica,sans-Serif" font-size="11.00">execute()</text>
<text text-anchor="middle" x="135" y="-378.7" font-family="Helvetica,sans-Serif" font-size="11.00">directly calls MCP server</text>
</g>
<!-- n2&#45;&gt;n3 -->
<g id="edge2" class="edge">
<title>n2&#45;&gt;n3</title>
<path fill="none" stroke="#475569" stroke-width="1.2" d="M135,-453.95C135,-440.97 135,-425.68 135,-413.15"/>
<polygon fill="#475569" stroke="#475569" stroke-width="1.2" points="137.28,-413.01 135,-406.51 132.73,-413.01 137.28,-413.01"/>
</g>
<!-- n4 -->
<g id="node4" class="node">
<title>n4</title>
<path fill="#ecfdf5" stroke="#334155" stroke-width="1.2" d="M188.5,-308C188.5,-308 81.5,-308 81.5,-308 75.5,-308 69.5,-302 69.5,-296 69.5,-296 69.5,-282 69.5,-282 69.5,-276 75.5,-270 81.5,-270 81.5,-270 188.5,-270 188.5,-270 194.5,-270 200.5,-276 200.5,-282 200.5,-282 200.5,-296 200.5,-296 200.5,-302 194.5,-308 188.5,-308"/>
<text text-anchor="middle" x="135" y="-292.2" font-family="Helvetica,sans-Serif" font-size="11.00">MCP scholar server</text>
<text text-anchor="middle" x="135" y="-280.2" font-family="Helvetica,sans-Serif" font-size="11.00">returns 5 papers</text>
</g>
<!-- n3&#45;&gt;n4 -->
<g id="edge3" class="edge">
<title>n3&#45;&gt;n4</title>
<path fill="none" stroke="#475569" stroke-width="1.2" d="M135,-368.35C135,-353.25 135,-331.61 135,-314.9"/>
<polygon fill="#475569" stroke="#475569" stroke-width="1.2" points="137.28,-314.57 135,-308.07 132.73,-314.57 137.28,-314.57"/>
</g>
<!-- n5 -->
<g id="node5" class="node">
<title>n5</title>
<path fill="#fffaf0" stroke="#334155" stroke-width="1.2" d="M202,-235C202,-235 68,-235 68,-235 62,-235 56,-229 56,-223 56,-223 56,-209 56,-209 56,-203 62,-197 68,-197 68,-197 202,-197 202,-197 208,-197 214,-203 214,-209 214,-209 214,-223 214,-223 214,-229 208,-235 202,-235"/>
<text text-anchor="middle" x="135" y="-219.2" font-family="Helvetica,sans-Serif" font-size="11.00">LLM summarizes results</text>
<text text-anchor="middle" x="135" y="-207.2" font-family="Helvetica,sans-Serif" font-size="11.00">for user</text>
</g>
<!-- n4&#45;&gt;n5 -->
<g id="edge4" class="edge">
<title>n4&#45;&gt;n5</title>
<path fill="none" stroke="#475569" stroke-width="1.2" d="M135,-269.72C135,-261.33 135,-251.26 135,-242.18"/>
<polygon fill="#475569" stroke="#475569" stroke-width="1.2" points="137.28,-241.97 135,-235.47 132.73,-241.97 137.28,-241.97"/>
</g>
<!-- n6 -->
<g id="node6" class="node">
<title>n6</title>
<path fill="#fef9c3" stroke="#b45309" stroke-width="1.6" d="M218,-165C218,-165 52,-165 52,-165 46,-165 40,-159 40,-153 40,-153 40,-108 40,-108 40,-102 46,-96 52,-96 52,-96 218,-96 218,-96 224,-96 230,-102 230,-108 230,-108 230,-153 230,-153 230,-159 224,-165 218,-165"/>
<text text-anchor="middle" x="135" y="-150" font-family="Helvetica,sans-Serif" font-size="10.00">✓ &#160;Works, but...</text>
<text text-anchor="middle" x="135" y="-139" font-family="Helvetica,sans-Serif" font-size="10.00">• no authorization check</text>
<text text-anchor="middle" x="135" y="-128" font-family="Helvetica,sans-Serif" font-size="10.00">• no record of what was accessed</text>
<text text-anchor="middle" x="135" y="-117" font-family="Helvetica,sans-Serif" font-size="10.00">• any MCP server is reachable</text>
<text text-anchor="middle" x="135" y="-106" font-family="Helvetica,sans-Serif" font-size="10.00">• no resource boundary</text>
</g>
<!-- n5&#45;&gt;n6 -->
<g id="edge5" class="edge">
<title>n5&#45;&gt;n6</title>
<path fill="none" stroke="#b45309" stroke-width="1.2" stroke-dasharray="5,2" d="M135,-196.88C135,-189.47 135,-180.57 135,-171.76"/>
<polygon fill="#b45309" stroke="#b45309" stroke-width="1.2" points="137.28,-171.57 135,-165.07 132.73,-171.57 137.28,-171.57"/>
</g>
<!-- k2 -->
<g id="node8" class="node">
<title>k2</title>
<path fill="#f0fdf4" stroke="#334155" stroke-width="1.2" d="M493.5,-512C493.5,-512 300.5,-512 300.5,-512 294.5,-512 288.5,-506 288.5,-500 288.5,-500 288.5,-466 288.5,-466 288.5,-460 294.5,-454 300.5,-454 300.5,-454 493.5,-454 493.5,-454 499.5,-454 505.5,-460 505.5,-466 505.5,-466 505.5,-500 505.5,-500 505.5,-506 499.5,-512 493.5,-512"/>
<text text-anchor="middle" x="397" y="-497" font-family="Courier,monospace" font-size="10.00">LLM generates tool call:</text>
<text text-anchor="middle" x="397" y="-486" font-family="Courier,monospace" font-size="10.00">mcp.scholar.search(</text>
<text text-anchor="middle" x="397" y="-475" font-family="Courier,monospace" font-size="10.00"> &#160;query=&quot;transformer efficiency&quot;</text>
<text text-anchor="middle" x="397" y="-464" font-family="Courier,monospace" font-size="10.00">)</text>
</g>
<!-- k1&#45;&gt;k2 -->
<g id="edge6" class="edge">
<title>k1&#45;&gt;k2</title>
<path fill="none" stroke="#475569" stroke-width="1.2" d="M383.28,-560.68C385.38,-548.91 388.19,-533.24 390.71,-519.13"/>
<polygon fill="#475569" stroke="#475569" stroke-width="1.2" points="393.02,-519.16 391.93,-512.36 388.54,-518.36 393.02,-519.16"/>
</g>
<!-- k3 -->
<g id="node9" class="node">
<title>k3</title>
<path fill="#f0fdf4" stroke="#334155" stroke-width="1.2" d="M466.5,-422C466.5,-422 315.5,-422 315.5,-422 309.5,-422 303.5,-416 303.5,-410 303.5,-410 303.5,-365 303.5,-365 303.5,-359 309.5,-353 315.5,-353 315.5,-353 466.5,-353 466.5,-353 472.5,-353 478.5,-359 478.5,-365 478.5,-365 478.5,-410 478.5,-410 478.5,-416 472.5,-422 466.5,-422"/>
<text text-anchor="middle" x="391" y="-407" font-family="Courier,monospace" font-size="10.00">kernel.submit(</text>
<text text-anchor="middle" x="391" y="-396" font-family="Courier,monospace" font-size="10.00"> &#160;action=&quot;mcp.call&quot;</text>
<text text-anchor="middle" x="391" y="-385" font-family="Courier,monospace" font-size="10.00"> &#160;target=&quot;scholar/search&quot;</text>
<text text-anchor="middle" x="391" y="-374" font-family="Courier,monospace" font-size="10.00"> &#160;params={query: ...}</text>
<text text-anchor="middle" x="391" y="-363" font-family="Courier,monospace" font-size="10.00">)</text>
</g>
<!-- k2&#45;&gt;k3 -->
<g id="edge7" class="edge">
<title>k2&#45;&gt;k3</title>
<path fill="none" stroke="#475569" stroke-width="1.2" d="M395.2,-453.95C394.69,-446.05 394.13,-437.31 393.59,-428.84"/>
<polygon fill="#475569" stroke="#475569" stroke-width="1.2" points="395.85,-428.48 393.16,-422.14 391.3,-428.77 395.85,-428.48"/>
</g>
<!-- k4 -->
<g id="node10" class="node">
<title>k4</title>
<path fill="#ffffff" stroke="#334155" stroke-width="1.2" d="M458.5,-307C458.5,-307 313.5,-307 313.5,-307 307.5,-307 301.5,-301 301.5,-295 301.5,-295 301.5,-283 301.5,-283 301.5,-277 307.5,-271 313.5,-271 313.5,-271 458.5,-271 458.5,-271 464.5,-271 470.5,-277 470.5,-283 470.5,-283 470.5,-295 470.5,-295 470.5,-301 464.5,-307 458.5,-307"/>
<text text-anchor="middle" x="386" y="-292" font-family="Helvetica,sans-Serif" font-size="10.00">1. Validate ✓</text>
<text text-anchor="middle" x="386" y="-281" font-family="Helvetica,sans-Serif" font-size="10.00"> &#160;&#160;&#160;well&#45;formed ActionRequest</text>
</g>
<!-- k3&#45;&gt;k4 -->
<g id="edge8" class="edge">
<title>k3&#45;&gt;k4</title>
<path fill="none" stroke="#475569" stroke-width="1.2" d="M389.25,-352.75C388.58,-339.85 387.84,-325.42 387.23,-313.65"/>
<polygon fill="#475569" stroke="#475569" stroke-width="1.2" points="389.49,-313.44 386.88,-307.06 384.95,-313.67 389.49,-313.44"/>
</g>
<!-- k5 -->
<g id="node11" class="node">
<title>k5</title>
<path fill="#ffffff" stroke="#334155" stroke-width="1.2" d="M476,-234C476,-234 340,-234 340,-234 334,-234 328,-228 328,-222 328,-222 328,-210 328,-210 328,-204 334,-198 340,-198 340,-198 476,-198 476,-198 482,-198 488,-204 488,-210 488,-210 488,-222 488,-222 488,-228 482,-234 476,-234"/>
<text text-anchor="middle" x="408" y="-219" font-family="Helvetica,sans-Serif" font-size="10.00">2. Policy check ✓</text>
<text text-anchor="middle" x="408" y="-208" font-family="Helvetica,sans-Serif" font-size="10.00"> &#160;&#160;&#160;rule: mcp.call → scholar/*</text>
</g>
<!-- k4&#45;&gt;k5 -->
<g id="edge9" class="edge">
<title>k4&#45;&gt;k5</title>
<path fill="none" stroke="#475569" stroke-width="1.2" d="M391.33,-270.81C394.16,-261.66 397.69,-250.26 400.78,-240.32"/>
<polygon fill="#475569" stroke="#475569" stroke-width="1.2" points="402.97,-240.91 402.72,-234.03 398.63,-239.56 402.97,-240.91"/>
</g>
<!-- k6 -->
<g id="node12" class="node">
<title>k6</title>
<path fill="#ffffff" stroke="#334155" stroke-width="1.2" d="M497.5,-148.5C497.5,-148.5 362.5,-148.5 362.5,-148.5 356.5,-148.5 350.5,-142.5 350.5,-136.5 350.5,-136.5 350.5,-124.5 350.5,-124.5 350.5,-118.5 356.5,-112.5 362.5,-112.5 362.5,-112.5 497.5,-112.5 497.5,-112.5 503.5,-112.5 509.5,-118.5 509.5,-124.5 509.5,-124.5 509.5,-136.5 509.5,-136.5 509.5,-142.5 503.5,-148.5 497.5,-148.5"/>
<text text-anchor="middle" x="430" y="-128" font-family="Helvetica,sans-Serif" font-size="10.00">3. Dispatch → MCP Provider</text>
</g>
<!-- k5&#45;&gt;k6 -->
<g id="edge10" class="edge">
<title>k5&#45;&gt;k6</title>
<path fill="none" stroke="#475569" stroke-width="1.2" d="M412.56,-197.7C415.8,-185.38 420.2,-168.69 423.77,-155.14"/>
<polygon fill="#475569" stroke="#475569" stroke-width="1.2" points="425.99,-155.64 425.45,-148.78 421.59,-154.48 425.99,-155.64"/>
</g>
<!-- k8 -->
<g id="node14" class="node">
<title>k8</title>
<path fill="#ecfdf5" stroke="#334155" stroke-width="1.2" d="M557.5,-64C557.5,-64 450.5,-64 450.5,-64 444.5,-64 438.5,-58 438.5,-52 438.5,-52 438.5,-38 438.5,-38 438.5,-32 444.5,-26 450.5,-26 450.5,-26 557.5,-26 557.5,-26 563.5,-26 569.5,-32 569.5,-38 569.5,-38 569.5,-52 569.5,-52 569.5,-58 563.5,-64 557.5,-64"/>
<text text-anchor="middle" x="504" y="-48.2" font-family="Helvetica,sans-Serif" font-size="11.00">MCP scholar server</text>
<text text-anchor="middle" x="504" y="-36.2" font-family="Helvetica,sans-Serif" font-size="11.00">returns 5 papers</text>
</g>
<!-- k6&#45;&gt;k8 -->
<g id="edge11" class="edge">
<title>k6&#45;&gt;k8</title>
<path fill="none" stroke="#475569" stroke-width="1.2" d="M445.33,-112.2C456.32,-99.8 471.24,-82.96 483.29,-69.37"/>
<polygon fill="#475569" stroke="#475569" stroke-width="1.2" points="485.31,-70.52 487.92,-64.15 481.91,-67.5 485.31,-70.52"/>
</g>
<!-- k7 -->
<g id="node13" class="node">
<title>k7</title>
<path fill="#eef7f3" stroke="#334155" stroke-width="1.2" d="M650,-311C650,-311 508,-311 508,-311 502,-311 496,-305 496,-299 496,-299 496,-279 496,-279 496,-273 502,-267 508,-267 508,-267 650,-267 650,-267 656,-267 662,-273 662,-279 662,-279 662,-299 662,-299 662,-305 656,-311 650,-311"/>
<text text-anchor="middle" x="579" y="-296.8" font-family="Courier,monospace" font-size="9.00">4. Log &#160;{ status: OK,</text>
<text text-anchor="middle" x="579" y="-286.8" font-family="Courier,monospace" font-size="9.00"> &#160;&#160;action: mcp.call,</text>
<text text-anchor="middle" x="579" y="-276.8" font-family="Courier,monospace" font-size="9.00"> &#160;&#160;target: scholar/search }</text>
</g>
<!-- k9 -->
<g id="node15" class="node">
<title>k9</title>
<path fill="#f0fdf4" stroke="#334155" stroke-width="1.2" d="M836,-235C836,-235 702,-235 702,-235 696,-235 690,-229 690,-223 690,-223 690,-209 690,-209 690,-203 696,-197 702,-197 702,-197 836,-197 836,-197 842,-197 848,-203 848,-209 848,-209 848,-223 848,-223 848,-229 842,-235 836,-235"/>
<text text-anchor="middle" x="769" y="-219.2" font-family="Helvetica,sans-Serif" font-size="11.00">LLM summarizes results</text>
<text text-anchor="middle" x="769" y="-207.2" font-family="Helvetica,sans-Serif" font-size="11.00">for user</text>
</g>
<!-- k7&#45;&gt;k9 -->
<g id="edge13" class="edge">
<title>k7&#45;&gt;k9</title>
<path fill="none" stroke="#475569" stroke-width="1.2" d="M635.24,-266.99C660.25,-257.64 689.6,-246.67 714.42,-237.4"/>
<polygon fill="#475569" stroke="#475569" stroke-width="1.2" points="715.34,-239.48 720.63,-235.08 713.74,-235.22 715.34,-239.48"/>
</g>
<!-- k8&#45;&gt;k7 -->
<g id="edge12" class="edge">
<title>k8&#45;&gt;k7</title>
<path fill="none" stroke="#475569" stroke-width="1.2" d="M510.5,-64.05C515.65,-78.37 522,-96 522,-96 522,-96 554.96,-207.03 570.75,-260.22"/>
<polygon fill="#475569" stroke="#475569" stroke-width="1.2" points="568.65,-261.14 572.68,-266.72 573.01,-259.84 568.65,-261.14"/>
</g>
<!-- k10 -->
<g id="node16" class="node">
<title>k10</title>
<path fill="#dcfce7" stroke="#166534" stroke-width="1.6" d="M1058,-165C1058,-165 896,-165 896,-165 890,-165 884,-159 884,-153 884,-153 884,-108 884,-108 884,-102 890,-96 896,-96 896,-96 1058,-96 1058,-96 1064,-96 1070,-102 1070,-108 1070,-108 1070,-153 1070,-153 1070,-159 1064,-165 1058,-165"/>
<text text-anchor="middle" x="977" y="-150" font-family="Helvetica,sans-Serif" font-size="10.00">✓ &#160;Same result, plus:</text>
<text text-anchor="middle" x="977" y="-139" font-family="Helvetica,sans-Serif" font-size="10.00">• authorized against policy</text>
<text text-anchor="middle" x="977" y="-128" font-family="Helvetica,sans-Serif" font-size="10.00">• scoped to scholar/* only</text>
<text text-anchor="middle" x="977" y="-117" font-family="Helvetica,sans-Serif" font-size="10.00">• audit trail recorded</text>
<text text-anchor="middle" x="977" y="-106" font-family="Helvetica,sans-Serif" font-size="10.00">• other MCP servers unreachable</text>
</g>
<!-- k9&#45;&gt;k10 -->
<g id="edge14" class="edge">
<title>k9&#45;&gt;k10</title>
<path fill="none" stroke="#166534" stroke-width="1.2" stroke-dasharray="5,2" d="M813.88,-196.98C835.33,-188.37 861.8,-177.75 887.13,-167.58"/>
<polygon fill="#166534" stroke="#166534" stroke-width="1.2" points="888.02,-169.67 893.2,-165.14 886.32,-165.45 888.02,-169.67"/>
</g>
</g>
</svg>
