<?xml version="1.0" encoding="UTF-8" standalone="no"?>
<!DOCTYPE svg PUBLIC "-//W3C//DTD SVG 1.1//EN"
 "http://www.w3.org/Graphics/SVG/1.1/DTD/svg11.dtd">
<!-- Generated by graphviz version 14.1.2 (20260124.0452)
 -->
<!-- Title: ExampleRollback Pages: 1 -->
<svg width="586pt" height="1115pt"
 viewBox="0.00 0.00 586.00 1115.00" xmlns="http://www.w3.org/2000/svg" xmlns:xlink="http://www.w3.org/1999/xlink">
<g id="graph0" class="graph" transform="scale(1 1) rotate(0) translate(36 1079.42)">
<title>ExampleRollback</title>
<polygon fill="#fcfcfb" stroke="none" points="-36,36 -36,-1079.42 550,-1079.42 550,36 -36,36"/>
<text xml:space="preserve" text-anchor="middle" x="257" y="-1022.32" font-family="Helvetica,sans-Serif" font-size="18.00" fill="#1e293b">Example: &#160;File Overwrite → User Notices → Rollback Restores</text>
<g id="clust1" class="cluster">
<title>cluster_no_rollback</title>
<path fill="#fffbeb" stroke="#fbbf24" d="M22.5,-485.4C22.5,-485.4 240.5,-485.4 240.5,-485.4 246.5,-485.4 252.5,-491.4 252.5,-497.4 252.5,-497.4 252.5,-992.92 252.5,-992.92 252.5,-998.92 246.5,-1004.92 240.5,-1004.92 240.5,-1004.92 22.5,-1004.92 22.5,-1004.92 16.5,-1004.92 10.5,-998.92 10.5,-992.92 10.5,-992.92 10.5,-497.4 10.5,-497.4 10.5,-491.4 16.5,-485.4 22.5,-485.4"/>
<text xml:space="preserve" text-anchor="middle" x="122.75" y="-987.62" font-family="Helvetica,sans-Serif" font-weight="bold" font-size="14.00" fill="#92400e">Without Reversible Action Layer</text>
</g>
<g id="clust2" class="cluster">
<title>cluster_with_rollback</title>
<path fill="#f0fdf4" stroke="#22c55e" d="M272.5,-8C272.5,-8 491.5,-8 491.5,-8 497.5,-8 503.5,-14 503.5,-20 503.5,-20 503.5,-905.52 503.5,-905.52 503.5,-911.52 497.5,-917.52 491.5,-917.52 491.5,-917.52 272.5,-917.52 272.5,-917.52 266.5,-917.52 260.5,-911.52 260.5,-905.52 260.5,-905.52 260.5,-20 260.5,-20 260.5,-14 266.5,-8 272.5,-8"/>
<text xml:space="preserve" text-anchor="middle" x="381.75" y="-900.23" font-family="Helvetica,sans-Serif" font-weight="bold" font-size="14.00" fill="#166534">With Reversible Action Layer (v2.1)</text>
</g>
<g id="clust3" class="cluster">
<title>cluster_submit_phase</title>
<path fill="#e2fee9" stroke="#86efac" d="M290.5,-501.4C290.5,-501.4 468.5,-501.4 468.5,-501.4 474.5,-501.4 480.5,-507.4 480.5,-513.4 480.5,-513.4 480.5,-726.35 480.5,-726.35 480.5,-732.35 474.5,-738.35 468.5,-738.35 468.5,-738.35 290.5,-738.35 290.5,-738.35 284.5,-738.35 278.5,-732.35 278.5,-726.35 278.5,-726.35 278.5,-513.4 278.5,-513.4 278.5,-507.4 284.5,-501.4 290.5,-501.4"/>
<text xml:space="preserve" text-anchor="middle" x="322.12" y="-723.9" font-family="Helvetica,sans-Serif" font-weight="bold" font-size="11.00" fill="#166534">layer.submit()</text>
</g>
<g id="clust4" class="cluster">
<title>cluster_rollback_phase</title>
<path fill="#e2fee9" stroke="#86efac" d="M290.5,-116.15C290.5,-116.15 468.5,-116.15 468.5,-116.15 474.5,-116.15 480.5,-122.15 480.5,-128.15 480.5,-128.15 480.5,-342.6 480.5,-342.6 480.5,-348.6 474.5,-354.6 468.5,-354.6 468.5,-354.6 290.5,-354.6 290.5,-354.6 284.5,-354.6 278.5,-348.6 278.5,-342.6 278.5,-342.6 278.5,-128.15 278.5,-128.15 278.5,-122.15 284.5,-116.15 290.5,-116.15"/>
<text xml:space="preserve" text-anchor="middle" x="350.25" y="-340.15" font-family="Helvetica,sans-Serif" font-weight="bold" font-size="11.00" fill="#166534">layer.rollback(record_id)</text>
</g>
<!-- n1 -->
<g id="node1" class="node">
<title>n1</title>
<polygon fill="#fef3c7" stroke="#334155" stroke-width="1.2" points="221.77,-963.92 71.23,-963.92 71.23,-925.52 227.77,-925.52 227.77,-957.92 221.77,-963.92"/>
<polyline fill="none" stroke="#334155" stroke-width="1.2" points="221.77,-963.92 221.77,-957.92"/>
<polyline fill="none" stroke="#334155" stroke-width="1.2" points="227.77,-957.92 221.77,-957.92"/>
<text xml:space="preserve" text-anchor="middle" x="149.5" y="-946.27" font-family="Helvetica,sans-Serif" font-size="11.00">User: &quot;Update the summary</text>
<text xml:space="preserve" text-anchor="middle" x="149.5" y="-934.27" font-family="Helvetica,sans-Serif" font-size="11.00">in report.md&quot;</text>
</g>
<!-- n2 -->
<g id="node2" class="node">
<title>n2</title>
<path fill="#fffaf0" stroke="#334155" stroke-width="1.2" d="M209.02,-883.65C209.02,-883.65 65.98,-883.65 65.98,-883.65 59.98,-883.65 53.98,-877.65 53.98,-871.65 53.98,-871.65 53.98,-843 53.98,-843 53.98,-837 59.98,-831 65.98,-831 65.98,-831 209.02,-831 209.02,-831 215.02,-831 221.02,-837 221.02,-843 221.02,-843 221.02,-871.65 221.02,-871.65 221.02,-877.65 215.02,-883.65 209.02,-883.65"/>
<text xml:space="preserve" text-anchor="middle" x="137.5" y="-866.95" font-family="Courier,monospace" font-size="10.00">LLM generates:</text>
<text xml:space="preserve" text-anchor="middle" x="137.5" y="-854.2" font-family="Courier,monospace" font-size="10.00">fs.write report.md</text>
<text xml:space="preserve" text-anchor="middle" x="137.5" y="-841.45" font-family="Courier,monospace" font-size="10.00">(overwrites entire file)</text>
</g>
<!-- n1&#45;&gt;n2 -->
<g id="edge1" class="edge">
<title>n1&#45;&gt;n2</title>
<path fill="none" stroke="#475569" stroke-width="1.2" d="M146.9,-925.19C145.53,-915.48 143.82,-903.29 142.23,-891.98"/>
<polygon fill="#475569" stroke="#475569" stroke-width="1.2" points="144.51,-891.86 141.35,-885.74 140,-892.5 144.51,-891.86"/>
</g>
<!-- k1 -->
<g id="node7" class="node">
<title>k1</title>
<polygon fill="#dcfce7" stroke="#334155" stroke-width="1.2" points="431.77,-876.52 281.23,-876.52 281.23,-838.12 437.77,-838.12 437.77,-870.52 431.77,-876.52"/>
<polyline fill="none" stroke="#334155" stroke-width="1.2" points="431.77,-876.52 431.77,-870.52"/>
<polyline fill="none" stroke="#334155" stroke-width="1.2" points="437.77,-870.52 431.77,-870.52"/>
<text xml:space="preserve" text-anchor="middle" x="359.5" y="-858.87" font-family="Helvetica,sans-Serif" font-size="11.00">User: &quot;Update the summary</text>
<text xml:space="preserve" text-anchor="middle" x="359.5" y="-846.87" font-family="Helvetica,sans-Serif" font-size="11.00">in report.md&quot;</text>
</g>
<!-- n1&#45;&gt;k1 -->
<!-- n3 -->
<g id="node3" class="node">
<title>n3</title>
<path fill="#eef7f3" stroke="#334155" stroke-width="1.2" d="M222.14,-798.25C222.14,-798.25 40.86,-798.25 40.86,-798.25 34.86,-798.25 28.86,-792.25 28.86,-786.25 28.86,-786.25 28.86,-759.1 28.86,-759.1 28.86,-753.1 34.86,-747.1 40.86,-747.1 40.86,-747.1 222.14,-747.1 222.14,-747.1 228.14,-747.1 234.14,-753.1 234.14,-759.1 234.14,-759.1 234.14,-786.25 234.14,-786.25 234.14,-792.25 228.14,-798.25 222.14,-798.25"/>
<text xml:space="preserve" text-anchor="middle" x="131.5" y="-781.55" font-family="Helvetica,sans-Serif" font-size="10.00">kernel.submit()</text>
<text xml:space="preserve" text-anchor="middle" x="131.5" y="-770.3" font-family="Helvetica,sans-Serif" font-size="10.00">→ Policy: fs.write /workspace/output/** ✓</text>
<text xml:space="preserve" text-anchor="middle" x="131.5" y="-757.55" font-family="Helvetica,sans-Serif" font-size="10.00">→ Gate allows</text>
</g>
<!-- n2&#45;&gt;n3 -->
<g id="edge2" class="edge">
<title>n2&#45;&gt;n3</title>
<path fill="none" stroke="#475569" stroke-width="1.2" d="M135.63,-830.63C135.09,-823.1 134.48,-814.76 133.91,-806.84"/>
<polygon fill="#475569" stroke="#475569" stroke-width="1.2" points="136.19,-806.92 133.45,-800.6 131.66,-807.25 136.19,-806.92"/>
</g>
<!-- n4 -->
<g id="node4" class="node">
<title>n4</title>
<path fill="#fee2e2" stroke="#991b1b" stroke-width="1.6" d="M184.27,-705.1C184.27,-705.1 90.73,-705.1 90.73,-705.1 84.73,-705.1 78.73,-699.1 78.73,-693.1 78.73,-693.1 78.73,-678.7 78.73,-678.7 78.73,-672.7 84.73,-666.7 90.73,-666.7 90.73,-666.7 184.27,-666.7 184.27,-666.7 190.27,-666.7 196.27,-672.7 196.27,-678.7 196.27,-678.7 196.27,-693.1 196.27,-693.1 196.27,-699.1 190.27,-705.1 184.27,-705.1"/>
<text xml:space="preserve" text-anchor="middle" x="137.5" y="-687.45" font-family="Helvetica,sans-Serif" font-size="11.00">File overwritten</text>
<text xml:space="preserve" text-anchor="middle" x="137.5" y="-675.45" font-family="Helvetica,sans-Serif" font-size="11.00">Original content lost</text>
</g>
<!-- n3&#45;&gt;n4 -->
<g id="edge3" class="edge">
<title>n3&#45;&gt;n4</title>
<path fill="none" stroke="#475569" stroke-width="1.2" d="M133.27,-746.7C134,-736.37 134.85,-724.37 135.59,-713.85"/>
<polygon fill="#475569" stroke="#475569" stroke-width="1.2" points="137.85,-714.24 136.04,-707.59 133.31,-713.91 137.85,-714.24"/>
</g>
<!-- n5 -->
<g id="node5" class="node">
<title>n5</title>
<polygon fill="#fef3c7" stroke="#334155" stroke-width="1.2" points="220.52,-634.7 74.48,-634.7 74.48,-596.3 226.52,-596.3 226.52,-628.7 220.52,-634.7"/>
<polyline fill="none" stroke="#334155" stroke-width="1.2" points="220.52,-634.7 220.52,-628.7"/>
<polyline fill="none" stroke="#334155" stroke-width="1.2" points="226.52,-628.7 220.52,-628.7"/>
<text xml:space="preserve" text-anchor="middle" x="150.5" y="-617.05" font-family="Helvetica,sans-Serif" font-size="11.00">User: &quot;Wait, that destroyed</text>
<text xml:space="preserve" text-anchor="middle" x="150.5" y="-605.05" font-family="Helvetica,sans-Serif" font-size="11.00">my hand&#45;edited sections!&quot;</text>
</g>
<!-- n4&#45;&gt;n5 -->
<g id="edge4" class="edge">
<title>n4&#45;&gt;n5</title>
<path fill="none" stroke="#475569" stroke-width="1.2" d="M141.05,-666.21C142.4,-659.12 143.96,-650.91 145.42,-643.22"/>
<polygon fill="#475569" stroke="#475569" stroke-width="1.2" points="147.63,-643.76 146.61,-636.95 143.16,-642.91 147.63,-643.76"/>
</g>
<!-- n6 -->
<g id="node6" class="node">
<title>n6</title>
<path fill="#fee2e2" stroke="#991b1b" stroke-width="1.6" d="M216.89,-564.3C216.89,-564.3 106.11,-564.3 106.11,-564.3 100.11,-564.3 94.11,-558.3 94.11,-552.3 94.11,-552.3 94.11,-515.4 94.11,-515.4 94.11,-509.4 100.11,-503.4 106.11,-503.4 106.11,-503.4 216.89,-503.4 216.89,-503.4 222.89,-503.4 228.89,-509.4 228.89,-515.4 228.89,-515.4 228.89,-552.3 228.89,-552.3 228.89,-558.3 222.89,-564.3 216.89,-564.3"/>
<text xml:space="preserve" text-anchor="middle" x="161.5" y="-547.6" font-family="Helvetica,sans-Serif" font-size="10.00">✗ &#160;No recovery possible</text>
<text xml:space="preserve" text-anchor="middle" x="161.5" y="-534.85" font-family="Helvetica,sans-Serif" font-size="10.00">• Action was authorized</text>
<text xml:space="preserve" text-anchor="middle" x="161.5" y="-523.6" font-family="Helvetica,sans-Serif" font-size="10.00">• Policy can&#39;t prevent this</text>
<text xml:space="preserve" text-anchor="middle" x="161.5" y="-512.35" font-family="Helvetica,sans-Serif" font-size="10.00">• Original content is gone</text>
</g>
<!-- n5&#45;&gt;n6 -->
<g id="edge5" class="edge">
<title>n5&#45;&gt;n6</title>
<path fill="none" stroke="#991b1b" stroke-width="1.2" stroke-dasharray="5,2" d="M153.05,-596.03C153.99,-589.2 155.1,-581.2 156.19,-573.26"/>
<polygon fill="#991b1b" stroke="#991b1b" stroke-width="1.2" points="158.44,-573.63 157.08,-566.87 153.93,-573 158.44,-573.63"/>
</g>
<!-- k11 -->
<g id="node17" class="node">
<title>k11</title>
<path fill="#dcfce7" stroke="#166534" stroke-width="1.6" d="M448.89,-98.15C448.89,-98.15 296.11,-98.15 296.11,-98.15 290.11,-98.15 284.11,-92.15 284.11,-86.15 284.11,-86.15 284.11,-38 284.11,-38 284.11,-32 290.11,-26 296.11,-26 296.11,-26 448.89,-26 448.89,-26 454.89,-26 460.89,-32 460.89,-38 460.89,-38 460.89,-86.15 460.89,-86.15 460.89,-92.15 454.89,-98.15 448.89,-98.15"/>
<text xml:space="preserve" text-anchor="middle" x="372.5" y="-81.45" font-family="Helvetica,sans-Serif" font-size="10.00">✓ &#160;File restored</text>
<text xml:space="preserve" text-anchor="middle" x="372.5" y="-68.7" font-family="Helvetica,sans-Serif" font-size="10.00">• Original content recovered</text>
<text xml:space="preserve" text-anchor="middle" x="372.5" y="-57.45" font-family="Helvetica,sans-Serif" font-size="10.00">• Restore was authorized by Policy</text>
<text xml:space="preserve" text-anchor="middle" x="372.5" y="-46.2" font-family="Helvetica,sans-Serif" font-size="10.00">• Both write + restore in audit log</text>
<text xml:space="preserve" text-anchor="middle" x="372.5" y="-34.95" font-family="Helvetica,sans-Serif" font-size="10.00">• Snapshot cleaned up</text>
</g>
<!-- n6&#45;&gt;k11 -->
<!-- k2 -->
<g id="node8" class="node">
<title>k2</title>
<path fill="#f0fdf4" stroke="#334155" stroke-width="1.2" d="M435.02,-799C435.02,-799 291.98,-799 291.98,-799 285.98,-799 279.98,-793 279.98,-787 279.98,-787 279.98,-758.35 279.98,-758.35 279.98,-752.35 285.98,-746.35 291.98,-746.35 291.98,-746.35 435.02,-746.35 435.02,-746.35 441.02,-746.35 447.02,-752.35 447.02,-758.35 447.02,-758.35 447.02,-787 447.02,-787 447.02,-793 441.02,-799 435.02,-799"/>
<text xml:space="preserve" text-anchor="middle" x="363.5" y="-782.3" font-family="Courier,monospace" font-size="10.00">LLM generates:</text>
<text xml:space="preserve" text-anchor="middle" x="363.5" y="-769.55" font-family="Courier,monospace" font-size="10.00">fs.write report.md</text>
<text xml:space="preserve" text-anchor="middle" x="363.5" y="-756.8" font-family="Courier,monospace" font-size="10.00">(overwrites entire file)</text>
</g>
<!-- k1&#45;&gt;k2 -->
<g id="edge6" class="edge">
<title>k1&#45;&gt;k2</title>
<path fill="none" stroke="#475569" stroke-width="1.2" d="M360.41,-837.57C360.84,-828.7 361.36,-817.83 361.86,-807.59"/>
<polygon fill="#475569" stroke="#475569" stroke-width="1.2" points="364.12,-807.98 362.16,-801.37 359.57,-807.76 364.12,-807.98"/>
</g>
<!-- k3 -->
<g id="node9" class="node">
<title>k3</title>
<path fill="#ede5f5" stroke="#334155" stroke-width="1.2" d="M433.52,-704.35C433.52,-704.35 311.48,-704.35 311.48,-704.35 305.48,-704.35 299.48,-698.35 299.48,-692.35 299.48,-692.35 299.48,-679.45 299.48,-679.45 299.48,-673.45 305.48,-667.45 311.48,-667.45 311.48,-667.45 433.52,-667.45 433.52,-667.45 439.52,-667.45 445.52,-673.45 445.52,-679.45 445.52,-679.45 445.52,-692.35 445.52,-692.35 445.52,-698.35 439.52,-704.35 433.52,-704.35"/>
<text xml:space="preserve" text-anchor="middle" x="372.5" y="-687.65" font-family="Helvetica,sans-Serif" font-size="10.00">1. FsWriteSnapshotStrategy</text>
<text xml:space="preserve" text-anchor="middle" x="372.5" y="-676.4" font-family="Helvetica,sans-Serif" font-size="10.00"> &#160;&#160;&#160;captures original content</text>
</g>
<!-- k2&#45;&gt;k3 -->
<g id="edge7" class="edge">
<title>k2&#45;&gt;k3</title>
<path fill="none" stroke="#475569" stroke-width="1.2" d="M366.25,-745.78C367.36,-735.33 368.64,-723.29 369.75,-712.84"/>
<polygon fill="#475569" stroke="#475569" stroke-width="1.2" points="371.98,-713.36 370.4,-706.66 367.45,-712.88 371.98,-713.36"/>
</g>
<!-- k4 -->
<g id="node10" class="node">
<title>k4</title>
<path fill="#ffffff" stroke="#334155" stroke-width="1.2" d="M454.02,-634.7C454.02,-634.7 304.98,-634.7 304.98,-634.7 298.98,-634.7 292.98,-628.7 292.98,-622.7 292.98,-622.7 292.98,-608.3 292.98,-608.3 292.98,-602.3 298.98,-596.3 304.98,-596.3 304.98,-596.3 454.02,-596.3 454.02,-596.3 460.02,-596.3 466.02,-602.3 466.02,-608.3 466.02,-608.3 466.02,-622.7 466.02,-622.7 466.02,-628.7 460.02,-634.7 454.02,-634.7"/>
<text xml:space="preserve" text-anchor="middle" x="379.5" y="-618" font-family="Helvetica,sans-Serif" font-size="10.00">2. kernel.submit(fs.write)</text>
<text xml:space="preserve" text-anchor="middle" x="379.5" y="-606.75" font-family="Helvetica,sans-Serif" font-size="10.00"> &#160;&#160;&#160;→ authorized, executed, logged</text>
</g>
<!-- k3&#45;&gt;k4 -->
<g id="edge8" class="edge">
<title>k3&#45;&gt;k4</title>
<path fill="none" stroke="#475569" stroke-width="1.2" d="M374.34,-666.93C375.08,-659.64 375.96,-651.08 376.78,-643.1"/>
<polygon fill="#475569" stroke="#475569" stroke-width="1.2" points="379.02,-643.57 377.42,-636.87 374.49,-643.11 379.02,-643.57"/>
</g>
<!-- k5 -->
<g id="node11" class="node">
<title>k5</title>
<path fill="#ede5f5" stroke="#334155" stroke-width="1.2" d="M430.39,-552.3C430.39,-552.3 328.61,-552.3 328.61,-552.3 322.61,-552.3 316.61,-546.3 316.61,-540.3 316.61,-540.3 316.61,-527.4 316.61,-527.4 316.61,-521.4 322.61,-515.4 328.61,-515.4 328.61,-515.4 430.39,-515.4 430.39,-515.4 436.39,-515.4 442.39,-521.4 442.39,-527.4 442.39,-527.4 442.39,-540.3 442.39,-540.3 442.39,-546.3 436.39,-552.3 430.39,-552.3"/>
<text xml:space="preserve" text-anchor="middle" x="379.5" y="-535.6" font-family="Helvetica,sans-Serif" font-size="10.00">3. store.save(record_id,</text>
<text xml:space="preserve" text-anchor="middle" x="379.5" y="-524.35" font-family="Helvetica,sans-Serif" font-size="10.00"> &#160;&#160;&#160;original content)</text>
</g>
<!-- k4&#45;&gt;k5 -->
<g id="edge9" class="edge">
<title>k4&#45;&gt;k5</title>
<path fill="none" stroke="#475569" stroke-width="1.2" d="M379.5,-596.03C379.5,-585.52 379.5,-572.21 379.5,-560.68"/>
<polygon fill="#475569" stroke="#475569" stroke-width="1.2" points="381.78,-560.99 379.5,-554.49 377.23,-560.99 381.78,-560.99"/>
</g>
<!-- k6 -->
<g id="node12" class="node">
<title>k6</title>
<path fill="#fef3c7" stroke="#334155" stroke-width="1.2" d="M430.02,-471.4C430.02,-471.4 328.98,-471.4 328.98,-471.4 322.98,-471.4 316.98,-465.4 316.98,-459.4 316.98,-459.4 316.98,-445 316.98,-445 316.98,-439 322.98,-433 328.98,-433 328.98,-433 430.02,-433 430.02,-433 436.02,-433 442.02,-439 442.02,-445 442.02,-445 442.02,-459.4 442.02,-459.4 442.02,-465.4 436.02,-471.4 430.02,-471.4"/>
<text xml:space="preserve" text-anchor="middle" x="379.5" y="-453.75" font-family="Helvetica,sans-Serif" font-size="11.00">File overwritten</text>
<text xml:space="preserve" text-anchor="middle" x="379.5" y="-441.75" font-family="Helvetica,sans-Serif" font-size="11.00">(snapshot preserved)</text>
</g>
<!-- k5&#45;&gt;k6 -->
<g id="edge10" class="edge">
<title>k5&#45;&gt;k6</title>
<path fill="none" stroke="#475569" stroke-width="1.2" d="M379.5,-515.17C379.5,-504.85 379.5,-491.61 379.5,-480.02"/>
<polygon fill="#475569" stroke="#475569" stroke-width="1.2" points="381.78,-480.25 379.5,-473.75 377.23,-480.25 381.78,-480.25"/>
</g>
<!-- k7 -->
<g id="node13" class="node">
<title>k7</title>
<polygon fill="#dcfce7" stroke="#334155" stroke-width="1.2" points="449.52,-401 303.48,-401 303.48,-362.6 455.52,-362.6 455.52,-395 449.52,-401"/>
<polyline fill="none" stroke="#334155" stroke-width="1.2" points="449.52,-401 449.52,-395"/>
<polyline fill="none" stroke="#334155" stroke-width="1.2" points="455.52,-395 449.52,-395"/>
<text xml:space="preserve" text-anchor="middle" x="379.5" y="-383.35" font-family="Helvetica,sans-Serif" font-size="11.00">User: &quot;Wait, that destroyed</text>
<text xml:space="preserve" text-anchor="middle" x="379.5" y="-371.35" font-family="Helvetica,sans-Serif" font-size="11.00">my hand&#45;edited sections!&quot;</text>
</g>
<!-- k6&#45;&gt;k7 -->
<g id="edge11" class="edge">
<title>k6&#45;&gt;k7</title>
<path fill="none" stroke="#475569" stroke-width="1.2" d="M379.5,-432.51C379.5,-425.42 379.5,-417.21 379.5,-409.52"/>
<polygon fill="#475569" stroke="#475569" stroke-width="1.2" points="381.78,-409.78 379.5,-403.28 377.23,-409.78 381.78,-409.78"/>
</g>
<!-- k8 -->
<g id="node14" class="node">
<title>k8</title>
<path fill="#ede5f5" stroke="#334155" stroke-width="1.2" d="M428.89,-320.6C428.89,-320.6 330.11,-320.6 330.11,-320.6 324.11,-320.6 318.11,-314.6 318.11,-308.6 318.11,-308.6 318.11,-294.2 318.11,-294.2 318.11,-288.2 324.11,-282.2 330.11,-282.2 330.11,-282.2 428.89,-282.2 428.89,-282.2 434.89,-282.2 440.89,-288.2 440.89,-294.2 440.89,-294.2 440.89,-308.6 440.89,-308.6 440.89,-314.6 434.89,-320.6 428.89,-320.6"/>
<text xml:space="preserve" text-anchor="middle" x="379.5" y="-303.9" font-family="Helvetica,sans-Serif" font-size="10.00">1. store.load(record_id)</text>
<text xml:space="preserve" text-anchor="middle" x="379.5" y="-292.65" font-family="Helvetica,sans-Serif" font-size="10.00"> &#160;&#160;&#160;→ original content</text>
</g>
<!-- k7&#45;&gt;k8 -->
<g id="edge12" class="edge">
<title>k7&#45;&gt;k8</title>
<path fill="none" stroke="#475569" stroke-width="1.2" d="M379.5,-362.22C379.5,-352.43 379.5,-340.24 379.5,-329.43"/>
<polygon fill="#475569" stroke="#475569" stroke-width="1.2" points="381.78,-329.43 379.5,-322.93 377.23,-329.43 381.78,-329.43"/>
</g>
<!-- k9 -->
<g id="node15" class="node">
<title>k9</title>
<path fill="#ede5f5" stroke="#334155" stroke-width="1.2" d="M429.64,-250.2C429.64,-250.2 329.36,-250.2 329.36,-250.2 323.36,-250.2 317.36,-244.2 317.36,-238.2 317.36,-238.2 317.36,-212.55 317.36,-212.55 317.36,-206.55 323.36,-200.55 329.36,-200.55 329.36,-200.55 429.64,-200.55 429.64,-200.55 435.64,-200.55 441.64,-206.55 441.64,-212.55 441.64,-212.55 441.64,-238.2 441.64,-238.2 441.64,-244.2 435.64,-250.2 429.64,-250.2"/>
<text xml:space="preserve" text-anchor="middle" x="379.5" y="-233.5" font-family="Helvetica,sans-Serif" font-size="10.00">2. strategy.restore()</text>
<text xml:space="preserve" text-anchor="middle" x="379.5" y="-222.25" font-family="Helvetica,sans-Serif" font-size="10.00"> &#160;&#160;&#160;→ build fs.write with</text>
<text xml:space="preserve" text-anchor="middle" x="379.5" y="-209.5" font-family="Helvetica,sans-Serif" font-size="10.00"> &#160;&#160;&#160;&#160;&#160;&#160;original content</text>
</g>
<!-- k8&#45;&gt;k9 -->
<g id="edge13" class="edge">
<title>k8&#45;&gt;k9</title>
<path fill="none" stroke="#475569" stroke-width="1.2" d="M379.5,-281.72C379.5,-274.8 379.5,-266.74 379.5,-258.94"/>
<polygon fill="#475569" stroke="#475569" stroke-width="1.2" points="381.78,-258.97 379.5,-252.47 377.23,-258.97 381.78,-258.97"/>
</g>
<!-- k10 -->
<g id="node16" class="node">
<title>k10</title>
<path fill="#ffffff" stroke="#334155" stroke-width="1.2" d="M454.02,-168.55C454.02,-168.55 304.98,-168.55 304.98,-168.55 298.98,-168.55 292.98,-162.55 292.98,-156.55 292.98,-156.55 292.98,-142.15 292.98,-142.15 292.98,-136.15 298.98,-130.15 304.98,-130.15 304.98,-130.15 454.02,-130.15 454.02,-130.15 460.02,-130.15 466.02,-136.15 466.02,-142.15 466.02,-142.15 466.02,-156.55 466.02,-156.55 466.02,-162.55 460.02,-168.55 454.02,-168.55"/>
<text xml:space="preserve" text-anchor="middle" x="379.5" y="-151.85" font-family="Helvetica,sans-Serif" font-size="10.00">3. kernel.submit(fs.write)</text>
<text xml:space="preserve" text-anchor="middle" x="379.5" y="-140.6" font-family="Helvetica,sans-Serif" font-size="10.00"> &#160;&#160;&#160;→ authorized, executed, logged</text>
</g>
<!-- k9&#45;&gt;k10 -->
<g id="edge14" class="edge">
<title>k9&#45;&gt;k10</title>
<path fill="none" stroke="#475569" stroke-width="1.2" d="M379.5,-200.14C379.5,-192.7 379.5,-184.49 379.5,-176.91"/>
<polygon fill="#475569" stroke="#475569" stroke-width="1.2" points="381.78,-177.32 379.5,-170.82 377.23,-177.32 381.78,-177.32"/>
</g>
<!-- k10&#45;&gt;k11 -->
<g id="edge15" class="edge">
<title>k10&#45;&gt;k11</title>
<path fill="none" stroke="#166534" stroke-width="1.2" stroke-dasharray="5,2" d="M377.98,-129.85C377.42,-123.01 376.76,-114.95 376.09,-106.83"/>
<polygon fill="#166534" stroke="#166534" stroke-width="1.2" points="378.37,-106.83 375.58,-100.54 373.84,-107.21 378.37,-106.83"/>
</g>
</g>
</svg>
